<?xml version="1.0" encoding="UTF-8" standalone="no"?>
<svg
   class="svg-icon"
   style="overflow:hidden;fill:currentColor"
   viewBox="0 0 999.99998 999.99998"
   version="1.1"
   id="svg7"
   sodipodi:docname="logo_main.svg"
   width="1000"
   height="1000"
   inkscape:version="1.3 (0e150ed6c4, 2023-07-21)"
   inkscape:export-filename="logo_youtube.png"
   inkscape:export-xdpi="144"
   inkscape:export-ydpi="144"
   xml:space="preserve"
   xmlns:inkscape="http://www.inkscape.org/namespaces/inkscape"
   xmlns:sodipodi="http://sodipodi.sourceforge.net/DTD/sodipodi-0.dtd"
   xmlns="http://www.w3.org/2000/svg"
   xmlns:svg="http://www.w3.org/2000/svg"><defs
     id="defs7" /><sodipodi:namedview
     id="namedview7"
     pagecolor="#ffffff"
     bordercolor="#000000"
     borderopacity="0.25"
     inkscape:showpageshadow="2"
     inkscape:pageopacity="0.0"
     inkscape:pagecheckerboard="0"
     inkscape:deskcolor="#d1d1d1"
     inkscape:zoom="0.5406881"
     inkscape:cx="479.01924"
     inkscape:cy="509.5359"
     inkscape:window-width="1920"
     inkscape:window-height="1001"
     inkscape:window-x="-9"
     inkscape:window-y="-9"
     inkscape:window-maximized="1"
     inkscape:current-layer="g1"
     showgrid="false" /><g
     id="g1"
     transform="translate(-6.1035156e-5)"><g
       id="g2"
       transform="matrix(0.98664316,0,0,0.98664316,6.1035156e-5,0)"
       style="stroke-width:1.01354"><circle
         style="fill:#ff0000;fill-opacity:1;stroke-width:1.91534;stroke-miterlimit:4.1"
         id="path8"
         cx="506.76883"
         cy="506.76883"
         r="506.76883" /><path
         d="m 219.73106,760.73276 c 103.43181,86.51815 214.09844,86.14818 341.4808,69.7587 128.86406,-16.51009 226.66483,-79.75232 297.8904,-188.31704 30.07252,-45.77645 43.24133,-96.08224 50.61645,-149.49336 3.7696,-27.97767 6.45773,-56.5557 -0.27588,-81.65368 -27.60158,15.69083 -70.93612,12.05101 -98.68271,8.96449 -35.56551,-4.04279 -66.26981,-33.18256 -81.76882,-64.97738 -1.17112,-1.03849 -2.19389,-2.24429 -2.97171,-3.59151 -2.8049,2.35426 -5.75816,4.87582 -9.34273,7.43527 5.35878,5.88757 6.14625,15.31253 -2.90299,19.72062 -101.9514,48.98206 -69.92594,179.82937 -141.46604,255.18097 -48.17929,50.75989 -116.57268,80.36722 -186.06263,84.31646 -125.62561,7.1286 -230.3104,-71.23602 -272.55772,-181.32151 -0.3735,10.6668 -0.50898,21.60442 -0.13562,32.57486 -0.0139,0.82451 0.0947,1.5783 0.0809,2.40281 l 0.0929,3.13071 c 0.0638,0.53473 0.031,1.04357 0.0947,1.5783 0.88171,16.80067 3.12265,33.55144 7.58015,49.75733 16.22121,58.07729 52.87908,96.68041 98.33058,134.53396 z"
         fill="#a6c285"
         id="path1"
         style="stroke-width:1.01354" /><path
         d="m 563.06284,828.6063 c 128.86407,-16.5101 226.66484,-79.75232 297.89041,-188.31704 30.07251,-45.77646 43.24133,-96.08225 50.61644,-149.49336 2.68392,-19.67579 6.71248,-70.25663 5.3566,-89.15138 -23.01456,9.77653 -61.37024,17.3059 -78.83455,12.93694 -10.65107,-2.75042 -24.4731,1.31055 -33.84716,-8.13757 -19.05462,-5.00214 -38.85981,-7.2031 -52.50425,-22.35068 -5.92546,4.72746 -11.89761,10.78827 -23.04787,16.08278 -41.57197,19.9191 -68.88714,54.63224 -83.34905,98.17283 -11.97911,35.82012 -11.40811,75.41714 -28.12026,109.96905 -18.24239,37.55829 -52.36708,67.54804 -88.52802,87.36412 -60.10723,33.06994 -124.2379,37.10934 -181.41192,19.82258 -90.60348,-8.4374 -196.25814,-121.43308 -240.25405,-196.7877 -0.49103,33.5149 -3.62623,85.7845 6.15809,118.42921 18.71431,30.99991 51.64518,83.51237 81.16312,108.19315 103.30934,86.58887 241.33012,99.65654 368.71247,83.26707 z"
         fill="#6c9a35"
         id="path2"
         style="stroke-width:1.01354" /><path
         d="m 926.67394,459.54015 c 4.18471,-41.11798 2.45089,-77.92075 -20.42755,-106.5165 3.48091,19.46415 2.95299,40.75291 0.60689,63.41799 -14.49997,145.29804 -98.99453,285.61026 -235.55395,348.61284 -68.27971,31.5013 -145.27156,38.72032 -219.45158,43.17283 -86.73569,5.33287 -162.3054,2.9943 -236.00813,-46.88082 -3.16675,-2.09086 -6.30762,-4.27831 -9.3519,-6.43988 16.55102,13.95937 33.92145,26.79245 51.19022,38.45948 71.32767,48.30697 144.42387,50.60393 228.41522,45.46747 71.77721,-4.37165 146.3145,-11.31662 212.37072,-41.86078 132.37634,-60.91408 214.12791,-196.7849 228.21006,-337.43263 z"
         fill="#53801e"
         id="path3"
         style="stroke-width:1.01354" /><path
         d="m 730.44032,333.76548 c -9.52019,5.00659 -7.70995,15.63735 -1.5715,21.31972 15.5249,31.69823 46.20331,60.93459 81.76883,64.97738 27.77247,2.98992 71.107,6.62975 98.68271,-8.96449 6.73361,25.09798 4.14206,53.70189 0.27587,81.65368 -7.27852,53.437 -20.54393,103.71691 -50.61644,149.49336 -71.22557,108.56472 -169.05223,171.90354 -297.89041,188.31704 -127.38235,16.38948 -237.95239,16.78534 -341.48079,-69.7587 -45.42562,-37.95014 -82.01278,-76.43079 -98.20811,-134.60467 -8.07525,-28.97741 -8.74012,-60.11032 -7.83548,-89.3733 42.27321,109.9889 146.93212,188.45012 272.55772,181.32151 69.48995,-3.94924 137.88334,-33.55657 186.06264,-84.31646 71.5401,-75.3516 39.51463,-206.19891 141.46603,-255.18097 61.57925,-26.77795 35.54883,-51.56868 -14.35612,-23.30991 -42.89332,20.60034 -71.15038,56.51048 -86.16782,101.3516 -12.41217,37.04994 -11.76539,77.9096 -29.10377,113.63957 -18.89452,38.83293 -54.10254,69.77475 -91.48822,90.29793 C 328.8116,750.82736 136.34459,631.8595 121.73108,452.25745 c -0.99082,-11.75705 -13.74104,-15.17346 -21.40517,-10.91187 -4.929935,1.78485 -8.954504,5.98638 -9.25865,12.53065 -2.957872,76.33552 -13.177277,148.86182 20.27803,220.6674 27.95561,59.87566 83.10377,106.74613 136.92465,143.11524 73.70273,49.87513 149.17584,52.18781 236.00813,46.88083 74.2059,-4.54911 151.19775,-11.76813 219.45158,-43.17283 136.55942,-63.00259 220.95738,-203.34069 235.55395,-348.61285 5.4294,-53.10425 1.30392,-99.14066 -42.9959,-130.47395 0,0 -31.70726,-19.9875 -75.04179,-23.62733 -38.12361,-3.38236 -81.40787,10.17687 -90.80559,15.11274 z m 76.10825,58.28426 c -18.21117,-4.67262 -36.74715,-23.20144 -48.26284,-40.88445 31.77723,-11.56968 72.05548,-10.81933 101.46395,3.06525 17.6658,8.25347 29.68575,19.03172 38.01945,31.20339 -21.76256,13.21782 -71.65709,11.65076 -91.22056,6.61581 z"
         fill="#333333"
         id="path4"
         sodipodi:nodetypes="ccccccccccccccccccccccccccccccccc"
         style="stroke-width:1.01354" /><path
         d="M 925.73844,546.87385 C 904.59986,625.37773 862.86118,698.46537 803.59033,753.91432 863.55627,698.9622 905.3726,625.58479 925.73844,546.87385 Z"
         fill="#ffa097"
         id="path5"
         style="fill:#a6c285;fill-opacity:1;stroke:#a6c285;stroke-width:1.01354;stroke-opacity:1" /><path
         d="m 806.89011,391.9342 c -18.21117,-4.67262 -36.74715,-23.20144 -48.26284,-40.88445 31.77724,-11.56967 72.05548,-10.81933 101.46396,3.06525 17.66579,8.25347 29.68574,19.03173 38.01945,31.20339 -21.76257,13.21782 -71.63122,11.55417 -91.22057,6.61581 z m 0,0"
         fill="#7eb35e"
         id="path6"
         style="stroke-width:1.01354" /><path
         d="m 895.82806,231.1753 c -6.60509,45.12819 -36.80615,101.43001 -78.3333,121.56819 -15.82323,7.66585 -4.81875,32.66588 11.10108,25.02591 51.31123,-24.97053 86.35815,-88.1526 94.44409,-143.4438 2.45606,-17.66629 -24.71098,-20.59752 -27.21187,-3.1503 z m 0,0"
         fill="#73ba2d"
         id="path7"
         style="fill:#333333;fill-opacity:1;stroke-width:1.01354" /><text
         xml:space="preserve"
         style="font-size:160px;font-family:'Latin Modern Roman';-inkscape-font-specification:'Latin Modern Roman, ';fill:#1a1a1a;stroke:none;stroke-width:1.91534;stroke-miterlimit:4.1"
         x="399.47009"
         y="294.50336"
         id="text1"><tspan
           sodipodi:role="line"
           id="tspan1"
           x="399.47009"
           y="294.50336"
           style="font-style:normal;font-variant:normal;font-weight:normal;font-stretch:normal;font-size:160px;font-family:'Bebas Neue';-inkscape-font-specification:'Bebas Neue';text-align:center;text-anchor:middle;fill:#f9f9f9;stroke-width:1.91534">Jalapeno </tspan><tspan
           sodipodi:role="line"
           x="399.47009"
           y="503.46335"
           style="font-style:normal;font-variant:normal;font-weight:normal;font-stretch:normal;font-size:160px;font-family:'Bebas Neue';-inkscape-font-specification:'Bebas Neue';text-align:center;text-anchor:middle;fill:#f9f9f9;stroke-width:1.91534"
           id="tspan8">Bytes</tspan></text></g></g></svg>
